%TF.GenerationSoftware,KiCad,Pcbnew,(5.1.9)-1*%
%TF.CreationDate,2021-01-20T17:58:29+09:00*%
%TF.ProjectId,test3_uno,74657374-335f-4756-9e6f-2e6b69636164,rev?*%
%TF.SameCoordinates,Original*%
%TF.FileFunction,Legend,Top*%
%TF.FilePolarity,Positive*%
%FSLAX46Y46*%
G04 Gerber Fmt 4.6, Leading zero omitted, Abs format (unit mm)*
G04 Created by KiCad (PCBNEW (5.1.9)-1) date 2021-01-20 17:58:29*
%MOMM*%
%LPD*%
G01*
G04 APERTURE LIST*
%ADD10C,0.150000*%
%ADD11C,0.120000*%
G04 APERTURE END LIST*
D10*
X121158095Y-87130000D02*
X121062857Y-87082380D01*
X120920000Y-87082380D01*
X120777142Y-87130000D01*
X120681904Y-87225238D01*
X120634285Y-87320476D01*
X120586666Y-87510952D01*
X120586666Y-87653809D01*
X120634285Y-87844285D01*
X120681904Y-87939523D01*
X120777142Y-88034761D01*
X120920000Y-88082380D01*
X121015238Y-88082380D01*
X121158095Y-88034761D01*
X121205714Y-87987142D01*
X121205714Y-87653809D01*
X121015238Y-87653809D01*
X121634285Y-88082380D02*
X121634285Y-87082380D01*
X122205714Y-88082380D01*
X122205714Y-87082380D01*
X122681904Y-88082380D02*
X122681904Y-87082380D01*
X122920000Y-87082380D01*
X123062857Y-87130000D01*
X123158095Y-87225238D01*
X123205714Y-87320476D01*
X123253333Y-87510952D01*
X123253333Y-87653809D01*
X123205714Y-87844285D01*
X123158095Y-87939523D01*
X123062857Y-88034761D01*
X122920000Y-88082380D01*
X122681904Y-88082380D01*
D11*
%TO.C,R3*%
X130190000Y-99980000D02*
X126350000Y-99980000D01*
X130190000Y-98140000D02*
X126350000Y-98140000D01*
%TO.C,R2*%
X130190000Y-96170000D02*
X126350000Y-96170000D01*
X130190000Y-94330000D02*
X126350000Y-94330000D01*
%TO.C,R1*%
X130190000Y-92360000D02*
X126350000Y-92360000D01*
X130190000Y-90520000D02*
X126350000Y-90520000D01*
%TO.C,J1*%
X119520000Y-88150000D02*
X119520000Y-104070000D01*
X119520000Y-104070000D02*
X110295000Y-104070000D01*
X110295000Y-104070000D02*
X110295000Y-102165000D01*
X110295000Y-102165000D02*
X109290000Y-102165000D01*
X109290000Y-102165000D02*
X109290000Y-90055000D01*
X109290000Y-90055000D02*
X110295000Y-90055000D01*
X110295000Y-90055000D02*
X110295000Y-88150000D01*
X110295000Y-88150000D02*
X119520000Y-88150000D01*
X116300000Y-87860000D02*
X112300000Y-87860000D01*
X109290000Y-90170000D02*
X110290000Y-90170000D01*
X110290000Y-90170000D02*
X110290000Y-102050000D01*
X110290000Y-102050000D02*
X109290000Y-102050000D01*
X110290000Y-90170000D02*
X111960000Y-90170000D01*
X111960000Y-90170000D02*
X111960000Y-102050000D01*
X111960000Y-102050000D02*
X110290000Y-102050000D01*
X119520000Y-89370000D02*
X118920000Y-89370000D01*
X118920000Y-89370000D02*
X118920000Y-90970000D01*
X118920000Y-90970000D02*
X119520000Y-90970000D01*
X119520000Y-93330000D02*
X118920000Y-93330000D01*
X118920000Y-93330000D02*
X118920000Y-94930000D01*
X118920000Y-94930000D02*
X119520000Y-94930000D01*
X119520000Y-97290000D02*
X118920000Y-97290000D01*
X118920000Y-97290000D02*
X118920000Y-98890000D01*
X118920000Y-98890000D02*
X119520000Y-98890000D01*
X119520000Y-101250000D02*
X118920000Y-101250000D01*
X118920000Y-101250000D02*
X118920000Y-102850000D01*
X118920000Y-102850000D02*
X119520000Y-102850000D01*
%TO.C,D3*%
X139928870Y-97980163D02*
G75*
G02*
X142010961Y-97980000I1041130J-1079837D01*
G01*
X139928870Y-100139837D02*
G75*
G03*
X142010961Y-100140000I1041130J1079837D01*
G01*
X139297665Y-97981392D02*
G75*
G02*
X142530000Y-97824484I1672335J-1078608D01*
G01*
X139297665Y-100138608D02*
G75*
G03*
X142530000Y-100295516I1672335J1078608D01*
G01*
X142530000Y-100296000D02*
X142530000Y-100140000D01*
X142530000Y-97980000D02*
X142530000Y-97824000D01*
%TO.C,D2*%
X139928870Y-92900163D02*
G75*
G02*
X142010961Y-92900000I1041130J-1079837D01*
G01*
X139928870Y-95059837D02*
G75*
G03*
X142010961Y-95060000I1041130J1079837D01*
G01*
X139297665Y-92901392D02*
G75*
G02*
X142530000Y-92744484I1672335J-1078608D01*
G01*
X139297665Y-95058608D02*
G75*
G03*
X142530000Y-95215516I1672335J1078608D01*
G01*
X142530000Y-95216000D02*
X142530000Y-95060000D01*
X142530000Y-92900000D02*
X142530000Y-92744000D01*
%TO.C,D1*%
X139928870Y-87820163D02*
G75*
G02*
X142010961Y-87820000I1041130J-1079837D01*
G01*
X139928870Y-89979837D02*
G75*
G03*
X142010961Y-89980000I1041130J1079837D01*
G01*
X139297665Y-87821392D02*
G75*
G02*
X142530000Y-87664484I1672335J-1078608D01*
G01*
X139297665Y-89978608D02*
G75*
G03*
X142530000Y-90135516I1672335J1078608D01*
G01*
X142530000Y-90136000D02*
X142530000Y-89980000D01*
X142530000Y-87820000D02*
X142530000Y-87664000D01*
%TO.C,R3*%
D10*
X128103333Y-101432380D02*
X127770000Y-100956190D01*
X127531904Y-101432380D02*
X127531904Y-100432380D01*
X127912857Y-100432380D01*
X128008095Y-100480000D01*
X128055714Y-100527619D01*
X128103333Y-100622857D01*
X128103333Y-100765714D01*
X128055714Y-100860952D01*
X128008095Y-100908571D01*
X127912857Y-100956190D01*
X127531904Y-100956190D01*
X128436666Y-100432380D02*
X129055714Y-100432380D01*
X128722380Y-100813333D01*
X128865238Y-100813333D01*
X128960476Y-100860952D01*
X129008095Y-100908571D01*
X129055714Y-101003809D01*
X129055714Y-101241904D01*
X129008095Y-101337142D01*
X128960476Y-101384761D01*
X128865238Y-101432380D01*
X128579523Y-101432380D01*
X128484285Y-101384761D01*
X128436666Y-101337142D01*
%TO.C,R2*%
X128103333Y-97622380D02*
X127770000Y-97146190D01*
X127531904Y-97622380D02*
X127531904Y-96622380D01*
X127912857Y-96622380D01*
X128008095Y-96670000D01*
X128055714Y-96717619D01*
X128103333Y-96812857D01*
X128103333Y-96955714D01*
X128055714Y-97050952D01*
X128008095Y-97098571D01*
X127912857Y-97146190D01*
X127531904Y-97146190D01*
X128484285Y-96717619D02*
X128531904Y-96670000D01*
X128627142Y-96622380D01*
X128865238Y-96622380D01*
X128960476Y-96670000D01*
X129008095Y-96717619D01*
X129055714Y-96812857D01*
X129055714Y-96908095D01*
X129008095Y-97050952D01*
X128436666Y-97622380D01*
X129055714Y-97622380D01*
%TO.C,R1*%
X128103333Y-93812380D02*
X127770000Y-93336190D01*
X127531904Y-93812380D02*
X127531904Y-92812380D01*
X127912857Y-92812380D01*
X128008095Y-92860000D01*
X128055714Y-92907619D01*
X128103333Y-93002857D01*
X128103333Y-93145714D01*
X128055714Y-93240952D01*
X128008095Y-93288571D01*
X127912857Y-93336190D01*
X127531904Y-93336190D01*
X129055714Y-93812380D02*
X128484285Y-93812380D01*
X128770000Y-93812380D02*
X128770000Y-92812380D01*
X128674761Y-92955238D01*
X128579523Y-93050476D01*
X128484285Y-93098095D01*
%TO.C,J1*%
X120062380Y-96443333D02*
X120776666Y-96443333D01*
X120919523Y-96490952D01*
X121014761Y-96586190D01*
X121062380Y-96729047D01*
X121062380Y-96824285D01*
X121062380Y-95443333D02*
X121062380Y-96014761D01*
X121062380Y-95729047D02*
X120062380Y-95729047D01*
X120205238Y-95824285D01*
X120300476Y-95919523D01*
X120348095Y-96014761D01*
%TO.C,D3*%
X140231904Y-102472380D02*
X140231904Y-101472380D01*
X140470000Y-101472380D01*
X140612857Y-101520000D01*
X140708095Y-101615238D01*
X140755714Y-101710476D01*
X140803333Y-101900952D01*
X140803333Y-102043809D01*
X140755714Y-102234285D01*
X140708095Y-102329523D01*
X140612857Y-102424761D01*
X140470000Y-102472380D01*
X140231904Y-102472380D01*
X141136666Y-101472380D02*
X141755714Y-101472380D01*
X141422380Y-101853333D01*
X141565238Y-101853333D01*
X141660476Y-101900952D01*
X141708095Y-101948571D01*
X141755714Y-102043809D01*
X141755714Y-102281904D01*
X141708095Y-102377142D01*
X141660476Y-102424761D01*
X141565238Y-102472380D01*
X141279523Y-102472380D01*
X141184285Y-102424761D01*
X141136666Y-102377142D01*
%TO.C,D2*%
X140231904Y-97392380D02*
X140231904Y-96392380D01*
X140470000Y-96392380D01*
X140612857Y-96440000D01*
X140708095Y-96535238D01*
X140755714Y-96630476D01*
X140803333Y-96820952D01*
X140803333Y-96963809D01*
X140755714Y-97154285D01*
X140708095Y-97249523D01*
X140612857Y-97344761D01*
X140470000Y-97392380D01*
X140231904Y-97392380D01*
X141184285Y-96487619D02*
X141231904Y-96440000D01*
X141327142Y-96392380D01*
X141565238Y-96392380D01*
X141660476Y-96440000D01*
X141708095Y-96487619D01*
X141755714Y-96582857D01*
X141755714Y-96678095D01*
X141708095Y-96820952D01*
X141136666Y-97392380D01*
X141755714Y-97392380D01*
%TO.C,D1*%
X140231904Y-92312380D02*
X140231904Y-91312380D01*
X140470000Y-91312380D01*
X140612857Y-91360000D01*
X140708095Y-91455238D01*
X140755714Y-91550476D01*
X140803333Y-91740952D01*
X140803333Y-91883809D01*
X140755714Y-92074285D01*
X140708095Y-92169523D01*
X140612857Y-92264761D01*
X140470000Y-92312380D01*
X140231904Y-92312380D01*
X141755714Y-92312380D02*
X141184285Y-92312380D01*
X141470000Y-92312380D02*
X141470000Y-91312380D01*
X141374761Y-91455238D01*
X141279523Y-91550476D01*
X141184285Y-91598095D01*
%TD*%
M02*
