%TF.GenerationSoftware,KiCad,Pcbnew,(5.1.9)-1*%
%TF.CreationDate,2021-01-15T17:16:07+09:00*%
%TF.ProjectId,test2,74657374-322e-46b6-9963-61645f706362,rev?*%
%TF.SameCoordinates,Original*%
%TF.FileFunction,Legend,Top*%
%TF.FilePolarity,Positive*%
%FSLAX46Y46*%
G04 Gerber Fmt 4.6, Leading zero omitted, Abs format (unit mm)*
G04 Created by KiCad (PCBNEW (5.1.9)-1) date 2021-01-15 17:16:07*
%MOMM*%
%LPD*%
G01*
G04 APERTURE LIST*
%ADD10C,0.120000*%
%ADD11C,0.150000*%
G04 APERTURE END LIST*
D10*
%TO.C,D1*%
X146340000Y-117030000D02*
X146340000Y-116874000D01*
X146340000Y-119346000D02*
X146340000Y-119190000D01*
X143107665Y-119188608D02*
G75*
G03*
X146340000Y-119345516I1672335J1078608D01*
G01*
X143107665Y-117031392D02*
G75*
G02*
X146340000Y-116874484I1672335J-1078608D01*
G01*
X143738870Y-119189837D02*
G75*
G03*
X145820961Y-119190000I1041130J1079837D01*
G01*
X143738870Y-117030163D02*
G75*
G02*
X145820961Y-117030000I1041130J-1079837D01*
G01*
%TO.C,J1*%
X148120000Y-90280000D02*
X148120000Y-89680000D01*
X146520000Y-90280000D02*
X148120000Y-90280000D01*
X146520000Y-89680000D02*
X146520000Y-90280000D01*
X145580000Y-90280000D02*
X145580000Y-89680000D01*
X143980000Y-90280000D02*
X145580000Y-90280000D01*
X143980000Y-89680000D02*
X143980000Y-90280000D01*
X147070000Y-95700000D02*
X147070000Y-94700000D01*
X145030000Y-95700000D02*
X145030000Y-94700000D01*
X147070000Y-94170000D02*
X147320000Y-94700000D01*
X145030000Y-94170000D02*
X147070000Y-94170000D01*
X144780000Y-94700000D02*
X145030000Y-94170000D01*
X147320000Y-94700000D02*
X147320000Y-95700000D01*
X144780000Y-94700000D02*
X147320000Y-94700000D01*
X144780000Y-95700000D02*
X144780000Y-94700000D01*
X143110000Y-90710000D02*
X143110000Y-94710000D01*
X148700000Y-89680000D02*
X143400000Y-89680000D01*
X148700000Y-95700000D02*
X148700000Y-89680000D01*
X143400000Y-95700000D02*
X148700000Y-95700000D01*
X143400000Y-89680000D02*
X143400000Y-95700000D01*
%TO.C,R1*%
X143410000Y-109950000D02*
X143740000Y-109950000D01*
X143410000Y-103410000D02*
X143410000Y-109950000D01*
X143740000Y-103410000D02*
X143410000Y-103410000D01*
X146150000Y-109950000D02*
X145820000Y-109950000D01*
X146150000Y-103410000D02*
X146150000Y-109950000D01*
X145820000Y-103410000D02*
X146150000Y-103410000D01*
%TO.C,D1*%
D11*
X144041904Y-121522380D02*
X144041904Y-120522380D01*
X144280000Y-120522380D01*
X144422857Y-120570000D01*
X144518095Y-120665238D01*
X144565714Y-120760476D01*
X144613333Y-120950952D01*
X144613333Y-121093809D01*
X144565714Y-121284285D01*
X144518095Y-121379523D01*
X144422857Y-121474761D01*
X144280000Y-121522380D01*
X144041904Y-121522380D01*
X145565714Y-121522380D02*
X144994285Y-121522380D01*
X145280000Y-121522380D02*
X145280000Y-120522380D01*
X145184761Y-120665238D01*
X145089523Y-120760476D01*
X144994285Y-120808095D01*
%TO.C,J1*%
X145716666Y-88042380D02*
X145716666Y-88756666D01*
X145669047Y-88899523D01*
X145573809Y-88994761D01*
X145430952Y-89042380D01*
X145335714Y-89042380D01*
X146716666Y-89042380D02*
X146145238Y-89042380D01*
X146430952Y-89042380D02*
X146430952Y-88042380D01*
X146335714Y-88185238D01*
X146240476Y-88280476D01*
X146145238Y-88328095D01*
%TO.C,R1*%
X147602380Y-106846666D02*
X147126190Y-107180000D01*
X147602380Y-107418095D02*
X146602380Y-107418095D01*
X146602380Y-107037142D01*
X146650000Y-106941904D01*
X146697619Y-106894285D01*
X146792857Y-106846666D01*
X146935714Y-106846666D01*
X147030952Y-106894285D01*
X147078571Y-106941904D01*
X147126190Y-107037142D01*
X147126190Y-107418095D01*
X147602380Y-105894285D02*
X147602380Y-106465714D01*
X147602380Y-106180000D02*
X146602380Y-106180000D01*
X146745238Y-106275238D01*
X146840476Y-106370476D01*
X146888095Y-106465714D01*
%TD*%
M02*
