M48
; DRILL file {KiCad (5.1.9)-1} date 02/15/21 18:03:03
; FORMAT={-:-/ absolute / inch / decimal}
; #@! TF.CreationDate,2021-02-15T18:03:03+09:00
; #@! TF.GenerationSoftware,Kicad,Pcbnew,(5.1.9)-1
; #@! TF.FileFunction,Plated,1,2,PTH
FMAT,2
INCH
T1C0.0157
T2C0.0276
T3C0.0354
T4C0.0394
T5C0.0472
T6C0.0551
%
G90
G05
T1
X5.7Y-2.0
T2
X5.7Y-1.55
X5.7Y-1.75
X5.8Y-1.65
T3
X5.5531Y-2.95
X5.6516Y-2.7531
X5.75Y-2.95
T4
X5.0Y-1.65
X5.25Y-2.9622
X5.25Y-3.1
X5.2992Y-1.65
X6.05Y-2.3
X6.05Y-2.4
T5
X5.25Y-3.4
X5.75Y-3.4
T6
X5.65Y-3.1
X6.05Y-3.1
T4
G00X5.2638Y-2.3106
M15
G01X5.2638Y-2.3894
M16
G05
G00X5.3425Y-2.535
M15
G01X5.4213Y-2.535
M16
G05
G00X5.5Y-2.3106
M15
G01X5.5Y-2.3894
M16
G05
T0
M30
