%TF.GenerationSoftware,KiCad,Pcbnew,(5.1.9)-1*%
%TF.CreationDate,2021-02-15T18:03:07+09:00*%
%TF.ProjectId,test3_testProject,74657374-335f-4746-9573-7450726f6a65,rev?*%
%TF.SameCoordinates,Original*%
%TF.FileFunction,Copper,L1,Top*%
%TF.FilePolarity,Positive*%
%FSLAX46Y46*%
G04 Gerber Fmt 4.6, Leading zero omitted, Abs format (unit mm)*
G04 Created by KiCad (PCBNEW (5.1.9)-1) date 2021-02-15 18:03:07*
%MOMM*%
%LPD*%
G01*
G04 APERTURE LIST*
%TA.AperFunction,ComponentPad*%
%ADD10R,2.000000X2.000000*%
%TD*%
%TA.AperFunction,ComponentPad*%
%ADD11C,2.000000*%
%TD*%
%TA.AperFunction,ComponentPad*%
%ADD12R,2.800000X2.800000*%
%TD*%
%TA.AperFunction,ComponentPad*%
%ADD13O,2.800000X2.800000*%
%TD*%
%TA.AperFunction,ComponentPad*%
%ADD14R,3.500000X3.500000*%
%TD*%
%TA.AperFunction,ComponentPad*%
%ADD15O,1.200000X1.600000*%
%TD*%
%TA.AperFunction,ComponentPad*%
%ADD16O,1.200000X1.200000*%
%TD*%
%TA.AperFunction,ComponentPad*%
%ADD17C,2.400000*%
%TD*%
%TA.AperFunction,ComponentPad*%
%ADD18O,2.400000X2.400000*%
%TD*%
%TA.AperFunction,ComponentPad*%
%ADD19C,1.620000*%
%TD*%
%TA.AperFunction,ComponentPad*%
%ADD20R,1.700000X1.700000*%
%TD*%
%TA.AperFunction,ComponentPad*%
%ADD21O,1.700000X1.700000*%
%TD*%
%TA.AperFunction,ViaPad*%
%ADD22C,0.800000*%
%TD*%
%TA.AperFunction,Conductor*%
%ADD23C,0.400000*%
%TD*%
%TA.AperFunction,Conductor*%
%ADD24C,0.254000*%
%TD*%
%TA.AperFunction,Conductor*%
%ADD25C,0.100000*%
%TD*%
G04 APERTURE END LIST*
D10*
%TO.P,BZ1,1*%
%TO.N,Net-(BZ1-Pad1)*%
X127000000Y-41910000D03*
D11*
%TO.P,BZ1,2*%
%TO.N,Net-(BZ1-Pad2)*%
X134600000Y-41910000D03*
%TD*%
D10*
%TO.P,C1,1*%
%TO.N,Net-(C1-Pad1)*%
X133350000Y-78740000D03*
D11*
%TO.P,C1,2*%
%TO.N,Net-(C1-Pad2)*%
X133350000Y-75240000D03*
%TD*%
D12*
%TO.P,D1,1*%
%TO.N,Net-(D1-Pad1)*%
X153670000Y-78740000D03*
D13*
%TO.P,D1,2*%
%TO.N,Net-(C1-Pad1)*%
X143510000Y-78740000D03*
%TD*%
D14*
%TO.P,J1,1*%
%TO.N,Net-(BZ1-Pad1)*%
X139700000Y-59690000D03*
%TO.P,J1,2*%
%TO.N,Net-(C1-Pad2)*%
%TA.AperFunction,ComponentPad*%
G36*
G01*
X132200000Y-60690000D02*
X132200000Y-58690000D01*
G75*
G02*
X132950000Y-57940000I750000J0D01*
G01*
X134450000Y-57940000D01*
G75*
G02*
X135200000Y-58690000I0J-750000D01*
G01*
X135200000Y-60690000D01*
G75*
G02*
X134450000Y-61440000I-750000J0D01*
G01*
X132950000Y-61440000D01*
G75*
G02*
X132200000Y-60690000I0J750000D01*
G01*
G37*
%TD.AperFunction*%
%TO.P,J1,3*%
%TO.N,Net-(J1-Pad3)*%
%TA.AperFunction,ComponentPad*%
G36*
G01*
X134950000Y-65265000D02*
X134950000Y-63515000D01*
G75*
G02*
X135825000Y-62640000I875000J0D01*
G01*
X137575000Y-62640000D01*
G75*
G02*
X138450000Y-63515000I0J-875000D01*
G01*
X138450000Y-65265000D01*
G75*
G02*
X137575000Y-66140000I-875000J0D01*
G01*
X135825000Y-66140000D01*
G75*
G02*
X134950000Y-65265000I0J875000D01*
G01*
G37*
%TD.AperFunction*%
%TD*%
D15*
%TO.P,Q1,1*%
%TO.N,Net-(C1-Pad2)*%
X144780000Y-44450000D03*
D16*
%TO.P,Q1,2*%
%TO.N,Net-(Q1-Pad2)*%
X147320000Y-41910000D03*
%TO.P,Q1,3*%
%TO.N,Net-(BZ1-Pad2)*%
X144780000Y-39370000D03*
%TD*%
D17*
%TO.P,R1,1*%
%TO.N,Net-(C1-Pad1)*%
X133350000Y-86360000D03*
D18*
%TO.P,R1,2*%
%TO.N,Net-(Q1-Pad2)*%
X146050000Y-86360000D03*
%TD*%
D19*
%TO.P,RV1,3*%
%TO.N,Net-(C1-Pad2)*%
X141050000Y-74930000D03*
%TO.P,RV1,2*%
X143550000Y-69930000D03*
%TO.P,RV1,1*%
%TO.N,Net-(D1-Pad1)*%
X146050000Y-74930000D03*
%TD*%
D20*
%TO.P,TH1,1*%
%TO.N,Net-(BZ1-Pad1)*%
X153670000Y-58420000D03*
D21*
%TO.P,TH1,2*%
%TO.N,Net-(D1-Pad1)*%
X153670000Y-60960000D03*
%TD*%
D22*
%TO.N,Net-(Q1-Pad2)*%
X144780000Y-50800000D03*
%TD*%
D23*
%TO.N,Net-(C1-Pad2)*%
X133700000Y-59690000D02*
X133700000Y-54260000D01*
X143510000Y-44450000D02*
X133700000Y-54260000D01*
X144780000Y-44450000D02*
X143510000Y-44450000D01*
%TO.N,Net-(Q1-Pad2)*%
X146050000Y-78615998D02*
X146050000Y-86360000D01*
X144780000Y-77345998D02*
X146050000Y-78615998D01*
X144780000Y-50800000D02*
X144780000Y-77345998D01*
%TD*%
D24*
%TO.N,Net-(C1-Pad2)*%
X158090001Y-90780000D02*
X123850000Y-90780000D01*
X123850000Y-87409872D01*
X124765000Y-87409872D01*
X124765000Y-87850128D01*
X124850890Y-88281925D01*
X125019369Y-88688669D01*
X125263962Y-89054729D01*
X125575271Y-89366038D01*
X125941331Y-89610631D01*
X126348075Y-89779110D01*
X126779872Y-89865000D01*
X127220128Y-89865000D01*
X127651925Y-89779110D01*
X128058669Y-89610631D01*
X128424729Y-89366038D01*
X128736038Y-89054729D01*
X128980631Y-88688669D01*
X129149110Y-88281925D01*
X129235000Y-87850128D01*
X129235000Y-87409872D01*
X129149110Y-86978075D01*
X128980631Y-86571331D01*
X128736038Y-86205271D01*
X128710035Y-86179268D01*
X131515000Y-86179268D01*
X131515000Y-86540732D01*
X131585518Y-86895250D01*
X131723844Y-87229199D01*
X131924662Y-87529744D01*
X132180256Y-87785338D01*
X132480801Y-87986156D01*
X132814750Y-88124482D01*
X133169268Y-88195000D01*
X133530732Y-88195000D01*
X133885250Y-88124482D01*
X134219199Y-87986156D01*
X134519744Y-87785338D01*
X134775338Y-87529744D01*
X134976156Y-87229199D01*
X135114482Y-86895250D01*
X135185000Y-86540732D01*
X135185000Y-86179268D01*
X135114482Y-85824750D01*
X134976156Y-85490801D01*
X134775338Y-85190256D01*
X134519744Y-84934662D01*
X134219199Y-84733844D01*
X133885250Y-84595518D01*
X133530732Y-84525000D01*
X133169268Y-84525000D01*
X132814750Y-84595518D01*
X132480801Y-84733844D01*
X132180256Y-84934662D01*
X131924662Y-85190256D01*
X131723844Y-85490801D01*
X131585518Y-85824750D01*
X131515000Y-86179268D01*
X128710035Y-86179268D01*
X128424729Y-85893962D01*
X128058669Y-85649369D01*
X127651925Y-85480890D01*
X127220128Y-85395000D01*
X126779872Y-85395000D01*
X126348075Y-85480890D01*
X125941331Y-85649369D01*
X125575271Y-85893962D01*
X125263962Y-86205271D01*
X125019369Y-86571331D01*
X124850890Y-86978075D01*
X124765000Y-87409872D01*
X123850000Y-87409872D01*
X123850000Y-77740000D01*
X131711928Y-77740000D01*
X131711928Y-79740000D01*
X131724188Y-79864482D01*
X131760498Y-79984180D01*
X131819463Y-80094494D01*
X131898815Y-80191185D01*
X131995506Y-80270537D01*
X132105820Y-80329502D01*
X132225518Y-80365812D01*
X132350000Y-80378072D01*
X134350000Y-80378072D01*
X134474482Y-80365812D01*
X134594180Y-80329502D01*
X134704494Y-80270537D01*
X134801185Y-80191185D01*
X134880537Y-80094494D01*
X134939502Y-79984180D01*
X134975812Y-79864482D01*
X134988072Y-79740000D01*
X134988072Y-78539570D01*
X141475000Y-78539570D01*
X141475000Y-78940430D01*
X141553204Y-79333587D01*
X141706607Y-79703934D01*
X141929313Y-80037237D01*
X142212763Y-80320687D01*
X142546066Y-80543393D01*
X142916413Y-80696796D01*
X143309570Y-80775000D01*
X143710430Y-80775000D01*
X144103587Y-80696796D01*
X144473934Y-80543393D01*
X144807237Y-80320687D01*
X145090687Y-80037237D01*
X145215000Y-79851189D01*
X145215001Y-84719678D01*
X145180801Y-84733844D01*
X144880256Y-84934662D01*
X144624662Y-85190256D01*
X144423844Y-85490801D01*
X144285518Y-85824750D01*
X144215000Y-86179268D01*
X144215000Y-86540732D01*
X144285518Y-86895250D01*
X144423844Y-87229199D01*
X144624662Y-87529744D01*
X144880256Y-87785338D01*
X145180801Y-87986156D01*
X145514750Y-88124482D01*
X145869268Y-88195000D01*
X146230732Y-88195000D01*
X146585250Y-88124482D01*
X146919199Y-87986156D01*
X147219744Y-87785338D01*
X147475338Y-87529744D01*
X147555434Y-87409872D01*
X152705000Y-87409872D01*
X152705000Y-87850128D01*
X152790890Y-88281925D01*
X152959369Y-88688669D01*
X153203962Y-89054729D01*
X153515271Y-89366038D01*
X153881331Y-89610631D01*
X154288075Y-89779110D01*
X154719872Y-89865000D01*
X155160128Y-89865000D01*
X155591925Y-89779110D01*
X155998669Y-89610631D01*
X156364729Y-89366038D01*
X156676038Y-89054729D01*
X156920631Y-88688669D01*
X157089110Y-88281925D01*
X157175000Y-87850128D01*
X157175000Y-87409872D01*
X157089110Y-86978075D01*
X156920631Y-86571331D01*
X156676038Y-86205271D01*
X156364729Y-85893962D01*
X155998669Y-85649369D01*
X155591925Y-85480890D01*
X155160128Y-85395000D01*
X154719872Y-85395000D01*
X154288075Y-85480890D01*
X153881331Y-85649369D01*
X153515271Y-85893962D01*
X153203962Y-86205271D01*
X152959369Y-86571331D01*
X152790890Y-86978075D01*
X152705000Y-87409872D01*
X147555434Y-87409872D01*
X147676156Y-87229199D01*
X147814482Y-86895250D01*
X147885000Y-86540732D01*
X147885000Y-86179268D01*
X147814482Y-85824750D01*
X147676156Y-85490801D01*
X147475338Y-85190256D01*
X147219744Y-84934662D01*
X146919199Y-84733844D01*
X146885000Y-84719678D01*
X146885000Y-78657013D01*
X146889040Y-78615997D01*
X146885000Y-78574979D01*
X146872918Y-78452309D01*
X146825172Y-78294911D01*
X146747636Y-78149852D01*
X146643291Y-78022707D01*
X146611428Y-77996558D01*
X145954870Y-77340000D01*
X151631928Y-77340000D01*
X151631928Y-80140000D01*
X151644188Y-80264482D01*
X151680498Y-80384180D01*
X151739463Y-80494494D01*
X151818815Y-80591185D01*
X151915506Y-80670537D01*
X152025820Y-80729502D01*
X152145518Y-80765812D01*
X152270000Y-80778072D01*
X155070000Y-80778072D01*
X155194482Y-80765812D01*
X155314180Y-80729502D01*
X155424494Y-80670537D01*
X155521185Y-80591185D01*
X155600537Y-80494494D01*
X155659502Y-80384180D01*
X155695812Y-80264482D01*
X155708072Y-80140000D01*
X155708072Y-77340000D01*
X155695812Y-77215518D01*
X155659502Y-77095820D01*
X155600537Y-76985506D01*
X155521185Y-76888815D01*
X155424494Y-76809463D01*
X155314180Y-76750498D01*
X155194482Y-76714188D01*
X155070000Y-76701928D01*
X152270000Y-76701928D01*
X152145518Y-76714188D01*
X152025820Y-76750498D01*
X151915506Y-76809463D01*
X151818815Y-76888815D01*
X151739463Y-76985506D01*
X151680498Y-77095820D01*
X151644188Y-77215518D01*
X151631928Y-77340000D01*
X145954870Y-77340000D01*
X145615000Y-77000131D01*
X145615000Y-76313874D01*
X145628509Y-76319470D01*
X145907680Y-76375000D01*
X146192320Y-76375000D01*
X146471491Y-76319470D01*
X146734464Y-76210543D01*
X146971134Y-76052405D01*
X147172405Y-75851134D01*
X147330543Y-75614464D01*
X147439470Y-75351491D01*
X147495000Y-75072320D01*
X147495000Y-74787680D01*
X147439470Y-74508509D01*
X147330543Y-74245536D01*
X147172405Y-74008866D01*
X146971134Y-73807595D01*
X146734464Y-73649457D01*
X146471491Y-73540530D01*
X146192320Y-73485000D01*
X145907680Y-73485000D01*
X145628509Y-73540530D01*
X145615000Y-73546126D01*
X145615000Y-57570000D01*
X152181928Y-57570000D01*
X152181928Y-59270000D01*
X152194188Y-59394482D01*
X152230498Y-59514180D01*
X152289463Y-59624494D01*
X152368815Y-59721185D01*
X152465506Y-59800537D01*
X152575820Y-59859502D01*
X152648380Y-59881513D01*
X152516525Y-60013368D01*
X152354010Y-60256589D01*
X152242068Y-60526842D01*
X152185000Y-60813740D01*
X152185000Y-61106260D01*
X152242068Y-61393158D01*
X152354010Y-61663411D01*
X152516525Y-61906632D01*
X152723368Y-62113475D01*
X152966589Y-62275990D01*
X153236842Y-62387932D01*
X153523740Y-62445000D01*
X153816260Y-62445000D01*
X154103158Y-62387932D01*
X154373411Y-62275990D01*
X154616632Y-62113475D01*
X154823475Y-61906632D01*
X154985990Y-61663411D01*
X155097932Y-61393158D01*
X155155000Y-61106260D01*
X155155000Y-60813740D01*
X155097932Y-60526842D01*
X154985990Y-60256589D01*
X154823475Y-60013368D01*
X154691620Y-59881513D01*
X154764180Y-59859502D01*
X154874494Y-59800537D01*
X154971185Y-59721185D01*
X155050537Y-59624494D01*
X155109502Y-59514180D01*
X155145812Y-59394482D01*
X155158072Y-59270000D01*
X155158072Y-57570000D01*
X155145812Y-57445518D01*
X155109502Y-57325820D01*
X155050537Y-57215506D01*
X154971185Y-57118815D01*
X154874494Y-57039463D01*
X154764180Y-56980498D01*
X154644482Y-56944188D01*
X154520000Y-56931928D01*
X152820000Y-56931928D01*
X152695518Y-56944188D01*
X152575820Y-56980498D01*
X152465506Y-57039463D01*
X152368815Y-57118815D01*
X152289463Y-57215506D01*
X152230498Y-57325820D01*
X152194188Y-57445518D01*
X152181928Y-57570000D01*
X145615000Y-57570000D01*
X145615000Y-51413285D01*
X145697205Y-51290256D01*
X145775226Y-51101898D01*
X145815000Y-50901939D01*
X145815000Y-50698061D01*
X145775226Y-50498102D01*
X145697205Y-50309744D01*
X145583937Y-50140226D01*
X145439774Y-49996063D01*
X145270256Y-49882795D01*
X145081898Y-49804774D01*
X144881939Y-49765000D01*
X144678061Y-49765000D01*
X144478102Y-49804774D01*
X144289744Y-49882795D01*
X144120226Y-49996063D01*
X143976063Y-50140226D01*
X143862795Y-50309744D01*
X143784774Y-50498102D01*
X143745000Y-50698061D01*
X143745000Y-50901939D01*
X143784774Y-51101898D01*
X143862795Y-51290256D01*
X143945000Y-51413285D01*
X143945001Y-68539335D01*
X143764171Y-68493890D01*
X143479885Y-68479702D01*
X143198294Y-68521248D01*
X142930217Y-68616932D01*
X142802556Y-68685168D01*
X142729762Y-68930157D01*
X143550000Y-69750395D01*
X143564143Y-69736253D01*
X143743748Y-69915858D01*
X143729605Y-69930000D01*
X143743748Y-69944143D01*
X143564143Y-70123748D01*
X143550000Y-70109605D01*
X142729762Y-70929843D01*
X142802556Y-71174832D01*
X143059773Y-71296733D01*
X143335829Y-71366110D01*
X143620115Y-71380298D01*
X143901706Y-71338752D01*
X143945001Y-71323299D01*
X143945001Y-76751659D01*
X143710430Y-76705000D01*
X143309570Y-76705000D01*
X142916413Y-76783204D01*
X142546066Y-76936607D01*
X142212763Y-77159313D01*
X141929313Y-77442763D01*
X141706607Y-77776066D01*
X141553204Y-78146413D01*
X141475000Y-78539570D01*
X134988072Y-78539570D01*
X134988072Y-77740000D01*
X134975812Y-77615518D01*
X134939502Y-77495820D01*
X134880537Y-77385506D01*
X134801185Y-77288815D01*
X134704494Y-77209463D01*
X134594180Y-77150498D01*
X134474482Y-77114188D01*
X134350000Y-77101928D01*
X132350000Y-77101928D01*
X132225518Y-77114188D01*
X132105820Y-77150498D01*
X131995506Y-77209463D01*
X131898815Y-77288815D01*
X131819463Y-77385506D01*
X131760498Y-77495820D01*
X131724188Y-77615518D01*
X131711928Y-77740000D01*
X123850000Y-77740000D01*
X123850000Y-76375413D01*
X132394192Y-76375413D01*
X132489956Y-76639814D01*
X132779571Y-76780704D01*
X133091108Y-76862384D01*
X133412595Y-76881718D01*
X133731675Y-76837961D01*
X134036088Y-76732795D01*
X134210044Y-76639814D01*
X134305808Y-76375413D01*
X133350000Y-75419605D01*
X132394192Y-76375413D01*
X123850000Y-76375413D01*
X123850000Y-75302595D01*
X131708282Y-75302595D01*
X131752039Y-75621675D01*
X131857205Y-75926088D01*
X131950186Y-76100044D01*
X132214587Y-76195808D01*
X133170395Y-75240000D01*
X133529605Y-75240000D01*
X134485413Y-76195808D01*
X134749814Y-76100044D01*
X134832612Y-75929843D01*
X140229762Y-75929843D01*
X140302556Y-76174832D01*
X140559773Y-76296733D01*
X140835829Y-76366110D01*
X141120115Y-76380298D01*
X141401706Y-76338752D01*
X141669783Y-76243068D01*
X141797444Y-76174832D01*
X141870238Y-75929843D01*
X141050000Y-75109605D01*
X140229762Y-75929843D01*
X134832612Y-75929843D01*
X134890704Y-75810429D01*
X134972384Y-75498892D01*
X134991718Y-75177405D01*
X134967406Y-75000115D01*
X139599702Y-75000115D01*
X139641248Y-75281706D01*
X139736932Y-75549783D01*
X139805168Y-75677444D01*
X140050157Y-75750238D01*
X140870395Y-74930000D01*
X141229605Y-74930000D01*
X142049843Y-75750238D01*
X142294832Y-75677444D01*
X142416733Y-75420227D01*
X142486110Y-75144171D01*
X142500298Y-74859885D01*
X142458752Y-74578294D01*
X142363068Y-74310217D01*
X142294832Y-74182556D01*
X142049843Y-74109762D01*
X141229605Y-74930000D01*
X140870395Y-74930000D01*
X140050157Y-74109762D01*
X139805168Y-74182556D01*
X139683267Y-74439773D01*
X139613890Y-74715829D01*
X139599702Y-75000115D01*
X134967406Y-75000115D01*
X134947961Y-74858325D01*
X134842795Y-74553912D01*
X134749814Y-74379956D01*
X134485413Y-74284192D01*
X133529605Y-75240000D01*
X133170395Y-75240000D01*
X132214587Y-74284192D01*
X131950186Y-74379956D01*
X131809296Y-74669571D01*
X131727616Y-74981108D01*
X131708282Y-75302595D01*
X123850000Y-75302595D01*
X123850000Y-74104587D01*
X132394192Y-74104587D01*
X133350000Y-75060395D01*
X134305808Y-74104587D01*
X134242631Y-73930157D01*
X140229762Y-73930157D01*
X141050000Y-74750395D01*
X141870238Y-73930157D01*
X141797444Y-73685168D01*
X141540227Y-73563267D01*
X141264171Y-73493890D01*
X140979885Y-73479702D01*
X140698294Y-73521248D01*
X140430217Y-73616932D01*
X140302556Y-73685168D01*
X140229762Y-73930157D01*
X134242631Y-73930157D01*
X134210044Y-73840186D01*
X133920429Y-73699296D01*
X133608892Y-73617616D01*
X133287405Y-73598282D01*
X132968325Y-73642039D01*
X132663912Y-73747205D01*
X132489956Y-73840186D01*
X132394192Y-74104587D01*
X123850000Y-74104587D01*
X123850000Y-70000115D01*
X142099702Y-70000115D01*
X142141248Y-70281706D01*
X142236932Y-70549783D01*
X142305168Y-70677444D01*
X142550157Y-70750238D01*
X143370395Y-69930000D01*
X142550157Y-69109762D01*
X142305168Y-69182556D01*
X142183267Y-69439773D01*
X142113890Y-69715829D01*
X142099702Y-70000115D01*
X123850000Y-70000115D01*
X123850000Y-63515000D01*
X134311928Y-63515000D01*
X134311928Y-65265000D01*
X134341001Y-65560186D01*
X134427104Y-65844028D01*
X134566927Y-66105618D01*
X134755097Y-66334903D01*
X134984382Y-66523073D01*
X135245972Y-66662896D01*
X135529814Y-66748999D01*
X135825000Y-66778072D01*
X137575000Y-66778072D01*
X137870186Y-66748999D01*
X138154028Y-66662896D01*
X138415618Y-66523073D01*
X138644903Y-66334903D01*
X138833073Y-66105618D01*
X138972896Y-65844028D01*
X139058999Y-65560186D01*
X139088072Y-65265000D01*
X139088072Y-63515000D01*
X139058999Y-63219814D01*
X138972896Y-62935972D01*
X138833073Y-62674382D01*
X138644903Y-62445097D01*
X138415618Y-62256927D01*
X138154028Y-62117104D01*
X138025357Y-62078072D01*
X141450000Y-62078072D01*
X141574482Y-62065812D01*
X141694180Y-62029502D01*
X141804494Y-61970537D01*
X141901185Y-61891185D01*
X141980537Y-61794494D01*
X142039502Y-61684180D01*
X142075812Y-61564482D01*
X142088072Y-61440000D01*
X142088072Y-57940000D01*
X142075812Y-57815518D01*
X142039502Y-57695820D01*
X141980537Y-57585506D01*
X141901185Y-57488815D01*
X141804494Y-57409463D01*
X141694180Y-57350498D01*
X141574482Y-57314188D01*
X141450000Y-57301928D01*
X137950000Y-57301928D01*
X137825518Y-57314188D01*
X137705820Y-57350498D01*
X137595506Y-57409463D01*
X137498815Y-57488815D01*
X137419463Y-57585506D01*
X137360498Y-57695820D01*
X137324188Y-57815518D01*
X137311928Y-57940000D01*
X137311928Y-61440000D01*
X137324188Y-61564482D01*
X137360498Y-61684180D01*
X137419463Y-61794494D01*
X137498815Y-61891185D01*
X137595506Y-61970537D01*
X137672131Y-62011494D01*
X137575000Y-62001928D01*
X135825000Y-62001928D01*
X135529814Y-62031001D01*
X135245972Y-62117104D01*
X134984382Y-62256927D01*
X134755097Y-62445097D01*
X134566927Y-62674382D01*
X134427104Y-62935972D01*
X134341001Y-63219814D01*
X134311928Y-63515000D01*
X123850000Y-63515000D01*
X123850000Y-61440000D01*
X131561928Y-61440000D01*
X131574188Y-61564482D01*
X131610498Y-61684180D01*
X131669463Y-61794494D01*
X131748815Y-61891185D01*
X131845506Y-61970537D01*
X131955820Y-62029502D01*
X132075518Y-62065812D01*
X132200000Y-62078072D01*
X133414250Y-62075000D01*
X133573000Y-61916250D01*
X133573000Y-59817000D01*
X133827000Y-59817000D01*
X133827000Y-61916250D01*
X133985750Y-62075000D01*
X135200000Y-62078072D01*
X135324482Y-62065812D01*
X135444180Y-62029502D01*
X135554494Y-61970537D01*
X135651185Y-61891185D01*
X135730537Y-61794494D01*
X135789502Y-61684180D01*
X135825812Y-61564482D01*
X135838072Y-61440000D01*
X135835000Y-59975750D01*
X135676250Y-59817000D01*
X133827000Y-59817000D01*
X133573000Y-59817000D01*
X131723750Y-59817000D01*
X131565000Y-59975750D01*
X131561928Y-61440000D01*
X123850000Y-61440000D01*
X123850000Y-57940000D01*
X131561928Y-57940000D01*
X131565000Y-59404250D01*
X131723750Y-59563000D01*
X133573000Y-59563000D01*
X133573000Y-57463750D01*
X133827000Y-57463750D01*
X133827000Y-59563000D01*
X135676250Y-59563000D01*
X135835000Y-59404250D01*
X135838072Y-57940000D01*
X135825812Y-57815518D01*
X135789502Y-57695820D01*
X135730537Y-57585506D01*
X135651185Y-57488815D01*
X135554494Y-57409463D01*
X135444180Y-57350498D01*
X135324482Y-57314188D01*
X135200000Y-57301928D01*
X133985750Y-57305000D01*
X133827000Y-57463750D01*
X133573000Y-57463750D01*
X133414250Y-57305000D01*
X132200000Y-57301928D01*
X132075518Y-57314188D01*
X131955820Y-57350498D01*
X131845506Y-57409463D01*
X131748815Y-57488815D01*
X131669463Y-57585506D01*
X131610498Y-57695820D01*
X131574188Y-57815518D01*
X131561928Y-57940000D01*
X123850000Y-57940000D01*
X123850000Y-44771681D01*
X143545087Y-44771681D01*
X143592554Y-45010263D01*
X143685654Y-45235000D01*
X143820809Y-45437256D01*
X143992826Y-45609258D01*
X144195093Y-45744396D01*
X144419838Y-45837477D01*
X144462391Y-45843462D01*
X144653000Y-45718731D01*
X144653000Y-44577000D01*
X144907000Y-44577000D01*
X144907000Y-45718731D01*
X145097609Y-45843462D01*
X145140162Y-45837477D01*
X145364907Y-45744396D01*
X145567174Y-45609258D01*
X145739191Y-45437256D01*
X145874346Y-45235000D01*
X145967446Y-45010263D01*
X146014913Y-44771681D01*
X145859994Y-44577000D01*
X144907000Y-44577000D01*
X144653000Y-44577000D01*
X143700006Y-44577000D01*
X143545087Y-44771681D01*
X123850000Y-44771681D01*
X123850000Y-44128319D01*
X143545087Y-44128319D01*
X143700006Y-44323000D01*
X144653000Y-44323000D01*
X144653000Y-43181269D01*
X144907000Y-43181269D01*
X144907000Y-44323000D01*
X145859994Y-44323000D01*
X146014913Y-44128319D01*
X145967446Y-43889737D01*
X145874346Y-43665000D01*
X145739191Y-43462744D01*
X145567174Y-43290742D01*
X145364907Y-43155604D01*
X145140162Y-43062523D01*
X145097609Y-43056538D01*
X144907000Y-43181269D01*
X144653000Y-43181269D01*
X144462391Y-43056538D01*
X144419838Y-43062523D01*
X144195093Y-43155604D01*
X143992826Y-43290742D01*
X143820809Y-43462744D01*
X143685654Y-43665000D01*
X143592554Y-43889737D01*
X143545087Y-44128319D01*
X123850000Y-44128319D01*
X123850000Y-40910000D01*
X125361928Y-40910000D01*
X125361928Y-42910000D01*
X125374188Y-43034482D01*
X125410498Y-43154180D01*
X125469463Y-43264494D01*
X125548815Y-43361185D01*
X125645506Y-43440537D01*
X125755820Y-43499502D01*
X125875518Y-43535812D01*
X126000000Y-43548072D01*
X128000000Y-43548072D01*
X128124482Y-43535812D01*
X128244180Y-43499502D01*
X128354494Y-43440537D01*
X128451185Y-43361185D01*
X128530537Y-43264494D01*
X128589502Y-43154180D01*
X128625812Y-43034482D01*
X128638072Y-42910000D01*
X128638072Y-41748967D01*
X132965000Y-41748967D01*
X132965000Y-42071033D01*
X133027832Y-42386912D01*
X133151082Y-42684463D01*
X133330013Y-42952252D01*
X133557748Y-43179987D01*
X133825537Y-43358918D01*
X134123088Y-43482168D01*
X134438967Y-43545000D01*
X134761033Y-43545000D01*
X135076912Y-43482168D01*
X135374463Y-43358918D01*
X135642252Y-43179987D01*
X135869987Y-42952252D01*
X136048918Y-42684463D01*
X136172168Y-42386912D01*
X136235000Y-42071033D01*
X136235000Y-41788363D01*
X146085000Y-41788363D01*
X146085000Y-42031637D01*
X146132460Y-42270236D01*
X146225557Y-42494992D01*
X146360713Y-42697267D01*
X146532733Y-42869287D01*
X146735008Y-43004443D01*
X146959764Y-43097540D01*
X147198363Y-43145000D01*
X147441637Y-43145000D01*
X147680236Y-43097540D01*
X147904992Y-43004443D01*
X148107267Y-42869287D01*
X148279287Y-42697267D01*
X148414443Y-42494992D01*
X148507540Y-42270236D01*
X148555000Y-42031637D01*
X148555000Y-41788363D01*
X148507540Y-41549764D01*
X148414443Y-41325008D01*
X148279287Y-41122733D01*
X148107267Y-40950713D01*
X147904992Y-40815557D01*
X147680236Y-40722460D01*
X147441637Y-40675000D01*
X147198363Y-40675000D01*
X146959764Y-40722460D01*
X146735008Y-40815557D01*
X146532733Y-40950713D01*
X146360713Y-41122733D01*
X146225557Y-41325008D01*
X146132460Y-41549764D01*
X146085000Y-41788363D01*
X136235000Y-41788363D01*
X136235000Y-41748967D01*
X136172168Y-41433088D01*
X136048918Y-41135537D01*
X135869987Y-40867748D01*
X135642252Y-40640013D01*
X135374463Y-40461082D01*
X135076912Y-40337832D01*
X134761033Y-40275000D01*
X134438967Y-40275000D01*
X134123088Y-40337832D01*
X133825537Y-40461082D01*
X133557748Y-40640013D01*
X133330013Y-40867748D01*
X133151082Y-41135537D01*
X133027832Y-41433088D01*
X132965000Y-41748967D01*
X128638072Y-41748967D01*
X128638072Y-40910000D01*
X128625812Y-40785518D01*
X128589502Y-40665820D01*
X128530537Y-40555506D01*
X128451185Y-40458815D01*
X128354494Y-40379463D01*
X128244180Y-40320498D01*
X128124482Y-40284188D01*
X128000000Y-40271928D01*
X126000000Y-40271928D01*
X125875518Y-40284188D01*
X125755820Y-40320498D01*
X125645506Y-40379463D01*
X125548815Y-40458815D01*
X125469463Y-40555506D01*
X125410498Y-40665820D01*
X125374188Y-40785518D01*
X125361928Y-40910000D01*
X123850000Y-40910000D01*
X123850000Y-39248363D01*
X143545000Y-39248363D01*
X143545000Y-39491637D01*
X143592460Y-39730236D01*
X143685557Y-39954992D01*
X143820713Y-40157267D01*
X143992733Y-40329287D01*
X144195008Y-40464443D01*
X144419764Y-40557540D01*
X144658363Y-40605000D01*
X144901637Y-40605000D01*
X145140236Y-40557540D01*
X145364992Y-40464443D01*
X145567267Y-40329287D01*
X145739287Y-40157267D01*
X145874443Y-39954992D01*
X145967540Y-39730236D01*
X146015000Y-39491637D01*
X146015000Y-39248363D01*
X145967540Y-39009764D01*
X145874443Y-38785008D01*
X145739287Y-38582733D01*
X145567267Y-38410713D01*
X145364992Y-38275557D01*
X145140236Y-38182460D01*
X144901637Y-38135000D01*
X144658363Y-38135000D01*
X144419764Y-38182460D01*
X144195008Y-38275557D01*
X143992733Y-38410713D01*
X143820713Y-38582733D01*
X143685557Y-38785008D01*
X143592460Y-39009764D01*
X143545000Y-39248363D01*
X123850000Y-39248363D01*
X123850000Y-36609872D01*
X152705000Y-36609872D01*
X152705000Y-37050128D01*
X152790890Y-37481925D01*
X152959369Y-37888669D01*
X153203962Y-38254729D01*
X153515271Y-38566038D01*
X153881331Y-38810631D01*
X154288075Y-38979110D01*
X154719872Y-39065000D01*
X155160128Y-39065000D01*
X155591925Y-38979110D01*
X155998669Y-38810631D01*
X156364729Y-38566038D01*
X156676038Y-38254729D01*
X156920631Y-37888669D01*
X157089110Y-37481925D01*
X157175000Y-37050128D01*
X157175000Y-36609872D01*
X157089110Y-36178075D01*
X156920631Y-35771331D01*
X156676038Y-35405271D01*
X156364729Y-35093962D01*
X155998669Y-34849369D01*
X155591925Y-34680890D01*
X155160128Y-34595000D01*
X154719872Y-34595000D01*
X154288075Y-34680890D01*
X153881331Y-34849369D01*
X153515271Y-35093962D01*
X153203962Y-35405271D01*
X152959369Y-35771331D01*
X152790890Y-36178075D01*
X152705000Y-36609872D01*
X123850000Y-36609872D01*
X123850000Y-33680000D01*
X158090000Y-33680000D01*
X158090001Y-90780000D01*
%TA.AperFunction,Conductor*%
D25*
G36*
X158090001Y-90780000D02*
G01*
X123850000Y-90780000D01*
X123850000Y-87409872D01*
X124765000Y-87409872D01*
X124765000Y-87850128D01*
X124850890Y-88281925D01*
X125019369Y-88688669D01*
X125263962Y-89054729D01*
X125575271Y-89366038D01*
X125941331Y-89610631D01*
X126348075Y-89779110D01*
X126779872Y-89865000D01*
X127220128Y-89865000D01*
X127651925Y-89779110D01*
X128058669Y-89610631D01*
X128424729Y-89366038D01*
X128736038Y-89054729D01*
X128980631Y-88688669D01*
X129149110Y-88281925D01*
X129235000Y-87850128D01*
X129235000Y-87409872D01*
X129149110Y-86978075D01*
X128980631Y-86571331D01*
X128736038Y-86205271D01*
X128710035Y-86179268D01*
X131515000Y-86179268D01*
X131515000Y-86540732D01*
X131585518Y-86895250D01*
X131723844Y-87229199D01*
X131924662Y-87529744D01*
X132180256Y-87785338D01*
X132480801Y-87986156D01*
X132814750Y-88124482D01*
X133169268Y-88195000D01*
X133530732Y-88195000D01*
X133885250Y-88124482D01*
X134219199Y-87986156D01*
X134519744Y-87785338D01*
X134775338Y-87529744D01*
X134976156Y-87229199D01*
X135114482Y-86895250D01*
X135185000Y-86540732D01*
X135185000Y-86179268D01*
X135114482Y-85824750D01*
X134976156Y-85490801D01*
X134775338Y-85190256D01*
X134519744Y-84934662D01*
X134219199Y-84733844D01*
X133885250Y-84595518D01*
X133530732Y-84525000D01*
X133169268Y-84525000D01*
X132814750Y-84595518D01*
X132480801Y-84733844D01*
X132180256Y-84934662D01*
X131924662Y-85190256D01*
X131723844Y-85490801D01*
X131585518Y-85824750D01*
X131515000Y-86179268D01*
X128710035Y-86179268D01*
X128424729Y-85893962D01*
X128058669Y-85649369D01*
X127651925Y-85480890D01*
X127220128Y-85395000D01*
X126779872Y-85395000D01*
X126348075Y-85480890D01*
X125941331Y-85649369D01*
X125575271Y-85893962D01*
X125263962Y-86205271D01*
X125019369Y-86571331D01*
X124850890Y-86978075D01*
X124765000Y-87409872D01*
X123850000Y-87409872D01*
X123850000Y-77740000D01*
X131711928Y-77740000D01*
X131711928Y-79740000D01*
X131724188Y-79864482D01*
X131760498Y-79984180D01*
X131819463Y-80094494D01*
X131898815Y-80191185D01*
X131995506Y-80270537D01*
X132105820Y-80329502D01*
X132225518Y-80365812D01*
X132350000Y-80378072D01*
X134350000Y-80378072D01*
X134474482Y-80365812D01*
X134594180Y-80329502D01*
X134704494Y-80270537D01*
X134801185Y-80191185D01*
X134880537Y-80094494D01*
X134939502Y-79984180D01*
X134975812Y-79864482D01*
X134988072Y-79740000D01*
X134988072Y-78539570D01*
X141475000Y-78539570D01*
X141475000Y-78940430D01*
X141553204Y-79333587D01*
X141706607Y-79703934D01*
X141929313Y-80037237D01*
X142212763Y-80320687D01*
X142546066Y-80543393D01*
X142916413Y-80696796D01*
X143309570Y-80775000D01*
X143710430Y-80775000D01*
X144103587Y-80696796D01*
X144473934Y-80543393D01*
X144807237Y-80320687D01*
X145090687Y-80037237D01*
X145215000Y-79851189D01*
X145215001Y-84719678D01*
X145180801Y-84733844D01*
X144880256Y-84934662D01*
X144624662Y-85190256D01*
X144423844Y-85490801D01*
X144285518Y-85824750D01*
X144215000Y-86179268D01*
X144215000Y-86540732D01*
X144285518Y-86895250D01*
X144423844Y-87229199D01*
X144624662Y-87529744D01*
X144880256Y-87785338D01*
X145180801Y-87986156D01*
X145514750Y-88124482D01*
X145869268Y-88195000D01*
X146230732Y-88195000D01*
X146585250Y-88124482D01*
X146919199Y-87986156D01*
X147219744Y-87785338D01*
X147475338Y-87529744D01*
X147555434Y-87409872D01*
X152705000Y-87409872D01*
X152705000Y-87850128D01*
X152790890Y-88281925D01*
X152959369Y-88688669D01*
X153203962Y-89054729D01*
X153515271Y-89366038D01*
X153881331Y-89610631D01*
X154288075Y-89779110D01*
X154719872Y-89865000D01*
X155160128Y-89865000D01*
X155591925Y-89779110D01*
X155998669Y-89610631D01*
X156364729Y-89366038D01*
X156676038Y-89054729D01*
X156920631Y-88688669D01*
X157089110Y-88281925D01*
X157175000Y-87850128D01*
X157175000Y-87409872D01*
X157089110Y-86978075D01*
X156920631Y-86571331D01*
X156676038Y-86205271D01*
X156364729Y-85893962D01*
X155998669Y-85649369D01*
X155591925Y-85480890D01*
X155160128Y-85395000D01*
X154719872Y-85395000D01*
X154288075Y-85480890D01*
X153881331Y-85649369D01*
X153515271Y-85893962D01*
X153203962Y-86205271D01*
X152959369Y-86571331D01*
X152790890Y-86978075D01*
X152705000Y-87409872D01*
X147555434Y-87409872D01*
X147676156Y-87229199D01*
X147814482Y-86895250D01*
X147885000Y-86540732D01*
X147885000Y-86179268D01*
X147814482Y-85824750D01*
X147676156Y-85490801D01*
X147475338Y-85190256D01*
X147219744Y-84934662D01*
X146919199Y-84733844D01*
X146885000Y-84719678D01*
X146885000Y-78657013D01*
X146889040Y-78615997D01*
X146885000Y-78574979D01*
X146872918Y-78452309D01*
X146825172Y-78294911D01*
X146747636Y-78149852D01*
X146643291Y-78022707D01*
X146611428Y-77996558D01*
X145954870Y-77340000D01*
X151631928Y-77340000D01*
X151631928Y-80140000D01*
X151644188Y-80264482D01*
X151680498Y-80384180D01*
X151739463Y-80494494D01*
X151818815Y-80591185D01*
X151915506Y-80670537D01*
X152025820Y-80729502D01*
X152145518Y-80765812D01*
X152270000Y-80778072D01*
X155070000Y-80778072D01*
X155194482Y-80765812D01*
X155314180Y-80729502D01*
X155424494Y-80670537D01*
X155521185Y-80591185D01*
X155600537Y-80494494D01*
X155659502Y-80384180D01*
X155695812Y-80264482D01*
X155708072Y-80140000D01*
X155708072Y-77340000D01*
X155695812Y-77215518D01*
X155659502Y-77095820D01*
X155600537Y-76985506D01*
X155521185Y-76888815D01*
X155424494Y-76809463D01*
X155314180Y-76750498D01*
X155194482Y-76714188D01*
X155070000Y-76701928D01*
X152270000Y-76701928D01*
X152145518Y-76714188D01*
X152025820Y-76750498D01*
X151915506Y-76809463D01*
X151818815Y-76888815D01*
X151739463Y-76985506D01*
X151680498Y-77095820D01*
X151644188Y-77215518D01*
X151631928Y-77340000D01*
X145954870Y-77340000D01*
X145615000Y-77000131D01*
X145615000Y-76313874D01*
X145628509Y-76319470D01*
X145907680Y-76375000D01*
X146192320Y-76375000D01*
X146471491Y-76319470D01*
X146734464Y-76210543D01*
X146971134Y-76052405D01*
X147172405Y-75851134D01*
X147330543Y-75614464D01*
X147439470Y-75351491D01*
X147495000Y-75072320D01*
X147495000Y-74787680D01*
X147439470Y-74508509D01*
X147330543Y-74245536D01*
X147172405Y-74008866D01*
X146971134Y-73807595D01*
X146734464Y-73649457D01*
X146471491Y-73540530D01*
X146192320Y-73485000D01*
X145907680Y-73485000D01*
X145628509Y-73540530D01*
X145615000Y-73546126D01*
X145615000Y-57570000D01*
X152181928Y-57570000D01*
X152181928Y-59270000D01*
X152194188Y-59394482D01*
X152230498Y-59514180D01*
X152289463Y-59624494D01*
X152368815Y-59721185D01*
X152465506Y-59800537D01*
X152575820Y-59859502D01*
X152648380Y-59881513D01*
X152516525Y-60013368D01*
X152354010Y-60256589D01*
X152242068Y-60526842D01*
X152185000Y-60813740D01*
X152185000Y-61106260D01*
X152242068Y-61393158D01*
X152354010Y-61663411D01*
X152516525Y-61906632D01*
X152723368Y-62113475D01*
X152966589Y-62275990D01*
X153236842Y-62387932D01*
X153523740Y-62445000D01*
X153816260Y-62445000D01*
X154103158Y-62387932D01*
X154373411Y-62275990D01*
X154616632Y-62113475D01*
X154823475Y-61906632D01*
X154985990Y-61663411D01*
X155097932Y-61393158D01*
X155155000Y-61106260D01*
X155155000Y-60813740D01*
X155097932Y-60526842D01*
X154985990Y-60256589D01*
X154823475Y-60013368D01*
X154691620Y-59881513D01*
X154764180Y-59859502D01*
X154874494Y-59800537D01*
X154971185Y-59721185D01*
X155050537Y-59624494D01*
X155109502Y-59514180D01*
X155145812Y-59394482D01*
X155158072Y-59270000D01*
X155158072Y-57570000D01*
X155145812Y-57445518D01*
X155109502Y-57325820D01*
X155050537Y-57215506D01*
X154971185Y-57118815D01*
X154874494Y-57039463D01*
X154764180Y-56980498D01*
X154644482Y-56944188D01*
X154520000Y-56931928D01*
X152820000Y-56931928D01*
X152695518Y-56944188D01*
X152575820Y-56980498D01*
X152465506Y-57039463D01*
X152368815Y-57118815D01*
X152289463Y-57215506D01*
X152230498Y-57325820D01*
X152194188Y-57445518D01*
X152181928Y-57570000D01*
X145615000Y-57570000D01*
X145615000Y-51413285D01*
X145697205Y-51290256D01*
X145775226Y-51101898D01*
X145815000Y-50901939D01*
X145815000Y-50698061D01*
X145775226Y-50498102D01*
X145697205Y-50309744D01*
X145583937Y-50140226D01*
X145439774Y-49996063D01*
X145270256Y-49882795D01*
X145081898Y-49804774D01*
X144881939Y-49765000D01*
X144678061Y-49765000D01*
X144478102Y-49804774D01*
X144289744Y-49882795D01*
X144120226Y-49996063D01*
X143976063Y-50140226D01*
X143862795Y-50309744D01*
X143784774Y-50498102D01*
X143745000Y-50698061D01*
X143745000Y-50901939D01*
X143784774Y-51101898D01*
X143862795Y-51290256D01*
X143945000Y-51413285D01*
X143945001Y-68539335D01*
X143764171Y-68493890D01*
X143479885Y-68479702D01*
X143198294Y-68521248D01*
X142930217Y-68616932D01*
X142802556Y-68685168D01*
X142729762Y-68930157D01*
X143550000Y-69750395D01*
X143564143Y-69736253D01*
X143743748Y-69915858D01*
X143729605Y-69930000D01*
X143743748Y-69944143D01*
X143564143Y-70123748D01*
X143550000Y-70109605D01*
X142729762Y-70929843D01*
X142802556Y-71174832D01*
X143059773Y-71296733D01*
X143335829Y-71366110D01*
X143620115Y-71380298D01*
X143901706Y-71338752D01*
X143945001Y-71323299D01*
X143945001Y-76751659D01*
X143710430Y-76705000D01*
X143309570Y-76705000D01*
X142916413Y-76783204D01*
X142546066Y-76936607D01*
X142212763Y-77159313D01*
X141929313Y-77442763D01*
X141706607Y-77776066D01*
X141553204Y-78146413D01*
X141475000Y-78539570D01*
X134988072Y-78539570D01*
X134988072Y-77740000D01*
X134975812Y-77615518D01*
X134939502Y-77495820D01*
X134880537Y-77385506D01*
X134801185Y-77288815D01*
X134704494Y-77209463D01*
X134594180Y-77150498D01*
X134474482Y-77114188D01*
X134350000Y-77101928D01*
X132350000Y-77101928D01*
X132225518Y-77114188D01*
X132105820Y-77150498D01*
X131995506Y-77209463D01*
X131898815Y-77288815D01*
X131819463Y-77385506D01*
X131760498Y-77495820D01*
X131724188Y-77615518D01*
X131711928Y-77740000D01*
X123850000Y-77740000D01*
X123850000Y-76375413D01*
X132394192Y-76375413D01*
X132489956Y-76639814D01*
X132779571Y-76780704D01*
X133091108Y-76862384D01*
X133412595Y-76881718D01*
X133731675Y-76837961D01*
X134036088Y-76732795D01*
X134210044Y-76639814D01*
X134305808Y-76375413D01*
X133350000Y-75419605D01*
X132394192Y-76375413D01*
X123850000Y-76375413D01*
X123850000Y-75302595D01*
X131708282Y-75302595D01*
X131752039Y-75621675D01*
X131857205Y-75926088D01*
X131950186Y-76100044D01*
X132214587Y-76195808D01*
X133170395Y-75240000D01*
X133529605Y-75240000D01*
X134485413Y-76195808D01*
X134749814Y-76100044D01*
X134832612Y-75929843D01*
X140229762Y-75929843D01*
X140302556Y-76174832D01*
X140559773Y-76296733D01*
X140835829Y-76366110D01*
X141120115Y-76380298D01*
X141401706Y-76338752D01*
X141669783Y-76243068D01*
X141797444Y-76174832D01*
X141870238Y-75929843D01*
X141050000Y-75109605D01*
X140229762Y-75929843D01*
X134832612Y-75929843D01*
X134890704Y-75810429D01*
X134972384Y-75498892D01*
X134991718Y-75177405D01*
X134967406Y-75000115D01*
X139599702Y-75000115D01*
X139641248Y-75281706D01*
X139736932Y-75549783D01*
X139805168Y-75677444D01*
X140050157Y-75750238D01*
X140870395Y-74930000D01*
X141229605Y-74930000D01*
X142049843Y-75750238D01*
X142294832Y-75677444D01*
X142416733Y-75420227D01*
X142486110Y-75144171D01*
X142500298Y-74859885D01*
X142458752Y-74578294D01*
X142363068Y-74310217D01*
X142294832Y-74182556D01*
X142049843Y-74109762D01*
X141229605Y-74930000D01*
X140870395Y-74930000D01*
X140050157Y-74109762D01*
X139805168Y-74182556D01*
X139683267Y-74439773D01*
X139613890Y-74715829D01*
X139599702Y-75000115D01*
X134967406Y-75000115D01*
X134947961Y-74858325D01*
X134842795Y-74553912D01*
X134749814Y-74379956D01*
X134485413Y-74284192D01*
X133529605Y-75240000D01*
X133170395Y-75240000D01*
X132214587Y-74284192D01*
X131950186Y-74379956D01*
X131809296Y-74669571D01*
X131727616Y-74981108D01*
X131708282Y-75302595D01*
X123850000Y-75302595D01*
X123850000Y-74104587D01*
X132394192Y-74104587D01*
X133350000Y-75060395D01*
X134305808Y-74104587D01*
X134242631Y-73930157D01*
X140229762Y-73930157D01*
X141050000Y-74750395D01*
X141870238Y-73930157D01*
X141797444Y-73685168D01*
X141540227Y-73563267D01*
X141264171Y-73493890D01*
X140979885Y-73479702D01*
X140698294Y-73521248D01*
X140430217Y-73616932D01*
X140302556Y-73685168D01*
X140229762Y-73930157D01*
X134242631Y-73930157D01*
X134210044Y-73840186D01*
X133920429Y-73699296D01*
X133608892Y-73617616D01*
X133287405Y-73598282D01*
X132968325Y-73642039D01*
X132663912Y-73747205D01*
X132489956Y-73840186D01*
X132394192Y-74104587D01*
X123850000Y-74104587D01*
X123850000Y-70000115D01*
X142099702Y-70000115D01*
X142141248Y-70281706D01*
X142236932Y-70549783D01*
X142305168Y-70677444D01*
X142550157Y-70750238D01*
X143370395Y-69930000D01*
X142550157Y-69109762D01*
X142305168Y-69182556D01*
X142183267Y-69439773D01*
X142113890Y-69715829D01*
X142099702Y-70000115D01*
X123850000Y-70000115D01*
X123850000Y-63515000D01*
X134311928Y-63515000D01*
X134311928Y-65265000D01*
X134341001Y-65560186D01*
X134427104Y-65844028D01*
X134566927Y-66105618D01*
X134755097Y-66334903D01*
X134984382Y-66523073D01*
X135245972Y-66662896D01*
X135529814Y-66748999D01*
X135825000Y-66778072D01*
X137575000Y-66778072D01*
X137870186Y-66748999D01*
X138154028Y-66662896D01*
X138415618Y-66523073D01*
X138644903Y-66334903D01*
X138833073Y-66105618D01*
X138972896Y-65844028D01*
X139058999Y-65560186D01*
X139088072Y-65265000D01*
X139088072Y-63515000D01*
X139058999Y-63219814D01*
X138972896Y-62935972D01*
X138833073Y-62674382D01*
X138644903Y-62445097D01*
X138415618Y-62256927D01*
X138154028Y-62117104D01*
X138025357Y-62078072D01*
X141450000Y-62078072D01*
X141574482Y-62065812D01*
X141694180Y-62029502D01*
X141804494Y-61970537D01*
X141901185Y-61891185D01*
X141980537Y-61794494D01*
X142039502Y-61684180D01*
X142075812Y-61564482D01*
X142088072Y-61440000D01*
X142088072Y-57940000D01*
X142075812Y-57815518D01*
X142039502Y-57695820D01*
X141980537Y-57585506D01*
X141901185Y-57488815D01*
X141804494Y-57409463D01*
X141694180Y-57350498D01*
X141574482Y-57314188D01*
X141450000Y-57301928D01*
X137950000Y-57301928D01*
X137825518Y-57314188D01*
X137705820Y-57350498D01*
X137595506Y-57409463D01*
X137498815Y-57488815D01*
X137419463Y-57585506D01*
X137360498Y-57695820D01*
X137324188Y-57815518D01*
X137311928Y-57940000D01*
X137311928Y-61440000D01*
X137324188Y-61564482D01*
X137360498Y-61684180D01*
X137419463Y-61794494D01*
X137498815Y-61891185D01*
X137595506Y-61970537D01*
X137672131Y-62011494D01*
X137575000Y-62001928D01*
X135825000Y-62001928D01*
X135529814Y-62031001D01*
X135245972Y-62117104D01*
X134984382Y-62256927D01*
X134755097Y-62445097D01*
X134566927Y-62674382D01*
X134427104Y-62935972D01*
X134341001Y-63219814D01*
X134311928Y-63515000D01*
X123850000Y-63515000D01*
X123850000Y-61440000D01*
X131561928Y-61440000D01*
X131574188Y-61564482D01*
X131610498Y-61684180D01*
X131669463Y-61794494D01*
X131748815Y-61891185D01*
X131845506Y-61970537D01*
X131955820Y-62029502D01*
X132075518Y-62065812D01*
X132200000Y-62078072D01*
X133414250Y-62075000D01*
X133573000Y-61916250D01*
X133573000Y-59817000D01*
X133827000Y-59817000D01*
X133827000Y-61916250D01*
X133985750Y-62075000D01*
X135200000Y-62078072D01*
X135324482Y-62065812D01*
X135444180Y-62029502D01*
X135554494Y-61970537D01*
X135651185Y-61891185D01*
X135730537Y-61794494D01*
X135789502Y-61684180D01*
X135825812Y-61564482D01*
X135838072Y-61440000D01*
X135835000Y-59975750D01*
X135676250Y-59817000D01*
X133827000Y-59817000D01*
X133573000Y-59817000D01*
X131723750Y-59817000D01*
X131565000Y-59975750D01*
X131561928Y-61440000D01*
X123850000Y-61440000D01*
X123850000Y-57940000D01*
X131561928Y-57940000D01*
X131565000Y-59404250D01*
X131723750Y-59563000D01*
X133573000Y-59563000D01*
X133573000Y-57463750D01*
X133827000Y-57463750D01*
X133827000Y-59563000D01*
X135676250Y-59563000D01*
X135835000Y-59404250D01*
X135838072Y-57940000D01*
X135825812Y-57815518D01*
X135789502Y-57695820D01*
X135730537Y-57585506D01*
X135651185Y-57488815D01*
X135554494Y-57409463D01*
X135444180Y-57350498D01*
X135324482Y-57314188D01*
X135200000Y-57301928D01*
X133985750Y-57305000D01*
X133827000Y-57463750D01*
X133573000Y-57463750D01*
X133414250Y-57305000D01*
X132200000Y-57301928D01*
X132075518Y-57314188D01*
X131955820Y-57350498D01*
X131845506Y-57409463D01*
X131748815Y-57488815D01*
X131669463Y-57585506D01*
X131610498Y-57695820D01*
X131574188Y-57815518D01*
X131561928Y-57940000D01*
X123850000Y-57940000D01*
X123850000Y-44771681D01*
X143545087Y-44771681D01*
X143592554Y-45010263D01*
X143685654Y-45235000D01*
X143820809Y-45437256D01*
X143992826Y-45609258D01*
X144195093Y-45744396D01*
X144419838Y-45837477D01*
X144462391Y-45843462D01*
X144653000Y-45718731D01*
X144653000Y-44577000D01*
X144907000Y-44577000D01*
X144907000Y-45718731D01*
X145097609Y-45843462D01*
X145140162Y-45837477D01*
X145364907Y-45744396D01*
X145567174Y-45609258D01*
X145739191Y-45437256D01*
X145874346Y-45235000D01*
X145967446Y-45010263D01*
X146014913Y-44771681D01*
X145859994Y-44577000D01*
X144907000Y-44577000D01*
X144653000Y-44577000D01*
X143700006Y-44577000D01*
X143545087Y-44771681D01*
X123850000Y-44771681D01*
X123850000Y-44128319D01*
X143545087Y-44128319D01*
X143700006Y-44323000D01*
X144653000Y-44323000D01*
X144653000Y-43181269D01*
X144907000Y-43181269D01*
X144907000Y-44323000D01*
X145859994Y-44323000D01*
X146014913Y-44128319D01*
X145967446Y-43889737D01*
X145874346Y-43665000D01*
X145739191Y-43462744D01*
X145567174Y-43290742D01*
X145364907Y-43155604D01*
X145140162Y-43062523D01*
X145097609Y-43056538D01*
X144907000Y-43181269D01*
X144653000Y-43181269D01*
X144462391Y-43056538D01*
X144419838Y-43062523D01*
X144195093Y-43155604D01*
X143992826Y-43290742D01*
X143820809Y-43462744D01*
X143685654Y-43665000D01*
X143592554Y-43889737D01*
X143545087Y-44128319D01*
X123850000Y-44128319D01*
X123850000Y-40910000D01*
X125361928Y-40910000D01*
X125361928Y-42910000D01*
X125374188Y-43034482D01*
X125410498Y-43154180D01*
X125469463Y-43264494D01*
X125548815Y-43361185D01*
X125645506Y-43440537D01*
X125755820Y-43499502D01*
X125875518Y-43535812D01*
X126000000Y-43548072D01*
X128000000Y-43548072D01*
X128124482Y-43535812D01*
X128244180Y-43499502D01*
X128354494Y-43440537D01*
X128451185Y-43361185D01*
X128530537Y-43264494D01*
X128589502Y-43154180D01*
X128625812Y-43034482D01*
X128638072Y-42910000D01*
X128638072Y-41748967D01*
X132965000Y-41748967D01*
X132965000Y-42071033D01*
X133027832Y-42386912D01*
X133151082Y-42684463D01*
X133330013Y-42952252D01*
X133557748Y-43179987D01*
X133825537Y-43358918D01*
X134123088Y-43482168D01*
X134438967Y-43545000D01*
X134761033Y-43545000D01*
X135076912Y-43482168D01*
X135374463Y-43358918D01*
X135642252Y-43179987D01*
X135869987Y-42952252D01*
X136048918Y-42684463D01*
X136172168Y-42386912D01*
X136235000Y-42071033D01*
X136235000Y-41788363D01*
X146085000Y-41788363D01*
X146085000Y-42031637D01*
X146132460Y-42270236D01*
X146225557Y-42494992D01*
X146360713Y-42697267D01*
X146532733Y-42869287D01*
X146735008Y-43004443D01*
X146959764Y-43097540D01*
X147198363Y-43145000D01*
X147441637Y-43145000D01*
X147680236Y-43097540D01*
X147904992Y-43004443D01*
X148107267Y-42869287D01*
X148279287Y-42697267D01*
X148414443Y-42494992D01*
X148507540Y-42270236D01*
X148555000Y-42031637D01*
X148555000Y-41788363D01*
X148507540Y-41549764D01*
X148414443Y-41325008D01*
X148279287Y-41122733D01*
X148107267Y-40950713D01*
X147904992Y-40815557D01*
X147680236Y-40722460D01*
X147441637Y-40675000D01*
X147198363Y-40675000D01*
X146959764Y-40722460D01*
X146735008Y-40815557D01*
X146532733Y-40950713D01*
X146360713Y-41122733D01*
X146225557Y-41325008D01*
X146132460Y-41549764D01*
X146085000Y-41788363D01*
X136235000Y-41788363D01*
X136235000Y-41748967D01*
X136172168Y-41433088D01*
X136048918Y-41135537D01*
X135869987Y-40867748D01*
X135642252Y-40640013D01*
X135374463Y-40461082D01*
X135076912Y-40337832D01*
X134761033Y-40275000D01*
X134438967Y-40275000D01*
X134123088Y-40337832D01*
X133825537Y-40461082D01*
X133557748Y-40640013D01*
X133330013Y-40867748D01*
X133151082Y-41135537D01*
X133027832Y-41433088D01*
X132965000Y-41748967D01*
X128638072Y-41748967D01*
X128638072Y-40910000D01*
X128625812Y-40785518D01*
X128589502Y-40665820D01*
X128530537Y-40555506D01*
X128451185Y-40458815D01*
X128354494Y-40379463D01*
X128244180Y-40320498D01*
X128124482Y-40284188D01*
X128000000Y-40271928D01*
X126000000Y-40271928D01*
X125875518Y-40284188D01*
X125755820Y-40320498D01*
X125645506Y-40379463D01*
X125548815Y-40458815D01*
X125469463Y-40555506D01*
X125410498Y-40665820D01*
X125374188Y-40785518D01*
X125361928Y-40910000D01*
X123850000Y-40910000D01*
X123850000Y-39248363D01*
X143545000Y-39248363D01*
X143545000Y-39491637D01*
X143592460Y-39730236D01*
X143685557Y-39954992D01*
X143820713Y-40157267D01*
X143992733Y-40329287D01*
X144195008Y-40464443D01*
X144419764Y-40557540D01*
X144658363Y-40605000D01*
X144901637Y-40605000D01*
X145140236Y-40557540D01*
X145364992Y-40464443D01*
X145567267Y-40329287D01*
X145739287Y-40157267D01*
X145874443Y-39954992D01*
X145967540Y-39730236D01*
X146015000Y-39491637D01*
X146015000Y-39248363D01*
X145967540Y-39009764D01*
X145874443Y-38785008D01*
X145739287Y-38582733D01*
X145567267Y-38410713D01*
X145364992Y-38275557D01*
X145140236Y-38182460D01*
X144901637Y-38135000D01*
X144658363Y-38135000D01*
X144419764Y-38182460D01*
X144195008Y-38275557D01*
X143992733Y-38410713D01*
X143820713Y-38582733D01*
X143685557Y-38785008D01*
X143592460Y-39009764D01*
X143545000Y-39248363D01*
X123850000Y-39248363D01*
X123850000Y-36609872D01*
X152705000Y-36609872D01*
X152705000Y-37050128D01*
X152790890Y-37481925D01*
X152959369Y-37888669D01*
X153203962Y-38254729D01*
X153515271Y-38566038D01*
X153881331Y-38810631D01*
X154288075Y-38979110D01*
X154719872Y-39065000D01*
X155160128Y-39065000D01*
X155591925Y-38979110D01*
X155998669Y-38810631D01*
X156364729Y-38566038D01*
X156676038Y-38254729D01*
X156920631Y-37888669D01*
X157089110Y-37481925D01*
X157175000Y-37050128D01*
X157175000Y-36609872D01*
X157089110Y-36178075D01*
X156920631Y-35771331D01*
X156676038Y-35405271D01*
X156364729Y-35093962D01*
X155998669Y-34849369D01*
X155591925Y-34680890D01*
X155160128Y-34595000D01*
X154719872Y-34595000D01*
X154288075Y-34680890D01*
X153881331Y-34849369D01*
X153515271Y-35093962D01*
X153203962Y-35405271D01*
X152959369Y-35771331D01*
X152790890Y-36178075D01*
X152705000Y-36609872D01*
X123850000Y-36609872D01*
X123850000Y-33680000D01*
X158090000Y-33680000D01*
X158090001Y-90780000D01*
G37*
%TD.AperFunction*%
%TD*%
M02*
